G04*
G04 #@! TF.GenerationSoftware,Altium Limited,Altium Designer,25.2.1 (25)*
G04*
G04 Layer_Color=8388736*
%FSLAX25Y25*%
%MOIN*%
G70*
G04*
G04 #@! TF.SameCoordinates,06D7508E-8D86-4BD8-A93B-F394D34A9F42*
G04*
G04*
G04 #@! TF.FilePolarity,Negative*
G04*
G01*
G75*
%ADD16C,0.07296*%
%ADD17R,0.07296X0.07296*%
%ADD18C,0.08477*%
%ADD19R,0.08477X0.08477*%
%ADD20C,0.05524*%
%ADD21C,0.05635*%
%ADD22R,0.05635X0.05635*%
%ADD23R,0.05131X0.05131*%
%ADD24C,0.05131*%
%ADD25C,0.08320*%
%ADD26R,0.08320X0.08320*%
%ADD27C,0.06800*%
%ADD28C,0.04765*%
%ADD29R,0.05131X0.05131*%
%ADD30R,0.06706X0.06706*%
%ADD31C,0.06706*%
%ADD32R,0.08477X0.08477*%
%ADD33C,0.06698*%
%ADD34R,0.06698X0.06698*%
%ADD35R,0.06272X0.06272*%
%ADD36C,0.06272*%
%ADD37C,0.07099*%
G04:AMPARAMS|DCode=38|XSize=70.99mil|YSize=70.99mil|CornerRadius=19.75mil|HoleSize=0mil|Usage=FLASHONLY|Rotation=0.000|XOffset=0mil|YOffset=0mil|HoleType=Round|Shape=RoundedRectangle|*
%AMROUNDEDRECTD38*
21,1,0.07099,0.03150,0,0,0.0*
21,1,0.03150,0.07099,0,0,0.0*
1,1,0.03950,0.01575,-0.01575*
1,1,0.03950,-0.01575,-0.01575*
1,1,0.03950,-0.01575,0.01575*
1,1,0.03950,0.01575,0.01575*
%
%ADD38ROUNDEDRECTD38*%
%ADD39C,0.05800*%
D16*
X330500Y216000D02*
D03*
X350500D02*
D03*
D17*
X370500D02*
D03*
D18*
X255500Y215000D02*
D03*
X170000Y212555D02*
D03*
X200500Y457000D02*
D03*
X156000Y399500D02*
D03*
Y458000D02*
D03*
X374000Y295500D02*
D03*
X371500Y410000D02*
D03*
D19*
X275500Y215000D02*
D03*
X190000Y212555D02*
D03*
X220500Y457000D02*
D03*
D20*
X335846Y368000D02*
D03*
X379153D02*
D03*
X380153Y326000D02*
D03*
X336846D02*
D03*
X177154Y354000D02*
D03*
X133846D02*
D03*
X138500Y203346D02*
D03*
Y246654D02*
D03*
X230500Y203346D02*
D03*
Y246654D02*
D03*
X311000Y203346D02*
D03*
Y246654D02*
D03*
X398654Y438500D02*
D03*
X355346D02*
D03*
D21*
X190000Y355000D02*
D03*
Y365000D02*
D03*
D22*
Y375000D02*
D03*
D23*
X373563Y462000D02*
D03*
D24*
X381437D02*
D03*
X190000Y272126D02*
D03*
X216500D02*
D03*
D25*
X212500Y383921D02*
D03*
Y393961D02*
D03*
D26*
Y404000D02*
D03*
D27*
X400000Y198500D02*
D03*
Y475500D02*
D03*
X124000D02*
D03*
Y198500D02*
D03*
D28*
X203500Y308894D02*
D03*
Y328106D02*
D03*
D29*
X190000Y280000D02*
D03*
X216500D02*
D03*
D30*
X242000Y405000D02*
D03*
D31*
Y395000D02*
D03*
Y385000D02*
D03*
Y375000D02*
D03*
Y365000D02*
D03*
Y355000D02*
D03*
Y345000D02*
D03*
Y335000D02*
D03*
Y325000D02*
D03*
Y315000D02*
D03*
Y305000D02*
D03*
Y295000D02*
D03*
Y285000D02*
D03*
Y275000D02*
D03*
X272000Y405000D02*
D03*
Y395000D02*
D03*
Y385000D02*
D03*
Y375000D02*
D03*
Y365000D02*
D03*
Y355000D02*
D03*
Y345000D02*
D03*
Y335000D02*
D03*
Y325000D02*
D03*
Y315000D02*
D03*
Y305000D02*
D03*
Y295000D02*
D03*
Y285000D02*
D03*
Y275000D02*
D03*
D32*
X156000Y379500D02*
D03*
Y438000D02*
D03*
X374000Y275500D02*
D03*
X371500Y390000D02*
D03*
D33*
X302705Y340642D02*
D03*
X328295D02*
D03*
Y358358D02*
D03*
D34*
X302705D02*
D03*
D35*
X154500Y296000D02*
D03*
D36*
Y306000D02*
D03*
Y316000D02*
D03*
Y326000D02*
D03*
D37*
X327500Y452500D02*
D03*
Y442500D02*
D03*
X317500Y452500D02*
D03*
Y442500D02*
D03*
X307500Y452500D02*
D03*
D38*
Y442500D02*
D03*
D39*
X293500Y385000D02*
D03*
M02*
