M48
;Layer_Color=9474304
;FILE_FORMAT=2:4
INCH,TZ
;TYPE=PLATED
T01F00S00C0.0259
T02F00S00C0.0280
T03F00S00C0.0283
T04F00S00C0.0295
T05F00S00C0.0315
T06F00S00C0.0354
T07F00S00C0.0390
T08F00S00C0.0409
T09F00S00C0.0433
T10F00S00C0.0500
T11F00S00C0.0512
;TYPE=NON_PLATED
T12F00S00C0.1000
%
T01
X20350Y30889
Y32811
T02
X29350Y38500
T03
X19000Y35500
Y36500
Y37500
T04
X19000Y27213
Y28000
X21650
Y27213
X37356Y46200
X38144
T05
X23050Y20335
Y24665
X31100
Y20335
X13850
Y24665
X13385Y35400
X17715
X33585Y36800
X33685Y32600
X38015
X37915Y36800
X39865Y43850
X35535
T06
X24200Y27500
Y28500
Y29500
Y30500
X27200
Y29500
Y28500
Y27500
Y31500
Y32500
Y33500
Y34500
Y35500
Y36500
Y37500
Y38500
Y39500
Y40500
X24200
Y39500
Y38500
Y37500
Y36500
Y35500
Y34500
Y33500
Y32500
Y31500
T07
X30270Y34064
Y35836
X32830
Y34064
T08
X15450Y29600
Y30600
Y31600
Y32600
T09
X33050Y21600
X35050
X37050
X30750Y44250
Y45250
X31750
X32750
Y44250
X31750
T10
X21250Y38392
Y39396
Y40400
T11
X37400Y27550
Y29550
X27550Y21500
X25550
X19000Y21256
X17000
X15600Y37950
Y39950
Y43800
Y45800
X20050Y45700
X22050
X37150Y41000
Y39000
T12
X40000Y19850
X12400
X40000Y47550
X12400
M30
