G04*
G04 #@! TF.GenerationSoftware,Altium Limited,Altium Designer,25.2.1 (25)*
G04*
G04 Layer_Color=65535*
%FSLAX25Y25*%
%MOIN*%
G70*
G04*
G04 #@! TF.SameCoordinates,06D7508E-8D86-4BD8-A93B-F394D34A9F42*
G04*
G04*
G04 #@! TF.FilePolarity,Positive*
G04*
G01*
G75*
%ADD10C,0.00787*%
%ADD11C,0.00500*%
%ADD12C,0.00984*%
%ADD13C,0.02362*%
%ADD14C,0.01000*%
%ADD15R,0.17717X0.03150*%
D10*
X383965Y215606D02*
X383177D01*
X383965D01*
X290224Y215000D02*
X289437D01*
X290224D01*
X204724Y212555D02*
X203937D01*
X204724D01*
X190394Y381354D02*
X189606D01*
X190394D01*
X365098Y462000D02*
X364311D01*
X365098D01*
X204252Y404000D02*
X203465D01*
X204252D01*
X190394Y288858D02*
X189606D01*
X190394D01*
X216894D02*
X216106D01*
X216894D01*
X254500Y409685D02*
X254690Y408728D01*
X255232Y407917D01*
X256043Y407375D01*
X257000Y407185D01*
X257957Y407375D01*
X258768Y407917D01*
X259310Y408728D01*
X259500Y409685D01*
X235224Y457000D02*
X234437D01*
X235224D01*
X156394Y365169D02*
X155606D01*
X156394D01*
X298394Y358358D02*
X297606D01*
X298394D01*
X156394Y423669D02*
X155606D01*
X156394D01*
X154894Y287437D02*
X154106D01*
X154894D01*
X374394Y261169D02*
X373606D01*
X374394D01*
X371894Y375669D02*
X371106D01*
X371894D01*
X246567Y270315D02*
Y409685D01*
X267433Y270315D02*
Y409685D01*
X246567D02*
X254500D01*
X259500D02*
X267433D01*
X246567Y270315D02*
X267433D01*
X149750Y289996D02*
X159250D01*
X149750Y332004D02*
X159250D01*
X149750Y289996D02*
Y332004D01*
X159250Y289996D02*
Y332004D01*
X287028Y429783D02*
Y465216D01*
Y429783D02*
X347972D01*
X287028Y465216D02*
X347972D01*
Y429783D02*
Y465216D01*
D11*
X199016Y364991D02*
X198960Y365998D01*
X198791Y366992D01*
X198513Y367961D01*
X198129Y368893D01*
X197644Y369776D01*
X197063Y370600D01*
X196394Y371353D01*
X195644Y372028D01*
X194825Y372615D01*
X193945Y373106D01*
Y356894D02*
X194825Y357385D01*
X195644Y357972D01*
X196394Y358647D01*
X197063Y359400D01*
X197644Y360224D01*
X198129Y361107D01*
X198513Y362039D01*
X198791Y363008D01*
X198960Y364002D01*
X199016Y365009D01*
X387343Y462000D02*
X387292Y462996D01*
X387141Y463981D01*
X386891Y464947D01*
X386545Y465881D01*
X386106Y466777D01*
X385578Y467623D01*
X384968Y468411D01*
X384281Y469134D01*
X383525Y469783D01*
X382706Y470353D01*
X381835Y470837D01*
X380918Y471230D01*
X379967Y471528D01*
X378990Y471729D01*
X377998Y471830D01*
X377002D01*
X376010Y471729D01*
X375033Y471528D01*
X374082Y471230D01*
X373165Y470837D01*
X372294Y470353D01*
X371475Y469783D01*
X370719Y469134D01*
X370032Y468411D01*
X369422Y467623D01*
X368894Y466777D01*
X368455Y465881D01*
X368109Y464947D01*
X367859Y463981D01*
X367708Y462996D01*
X367657Y462000D01*
X367708Y461004D01*
X367859Y460019D01*
X368109Y459054D01*
X368455Y458118D01*
X368894Y457223D01*
X369422Y456377D01*
X370032Y455589D01*
X370719Y454866D01*
X371475Y454217D01*
X372294Y453647D01*
X373165Y453163D01*
X374082Y452770D01*
X375033Y452472D01*
X376010Y452271D01*
X377002Y452170D01*
X377998D01*
X378991Y452271D01*
X379967Y452472D01*
X380918Y452770D01*
X381835Y453163D01*
X382706Y453647D01*
X383525Y454217D01*
X384281Y454866D01*
X384968Y455589D01*
X385578Y456377D01*
X386106Y457223D01*
X386545Y458119D01*
X386891Y459054D01*
X387141Y460019D01*
X387292Y461004D01*
X387343Y462000D01*
X203500Y341138D02*
X202471Y341084D01*
X201454Y340923D01*
X200459Y340656D01*
X199497Y340287D01*
X198579Y339819D01*
X197715Y339258D01*
X196914Y338610D01*
X196186Y337881D01*
X195537Y337081D01*
X194976Y336216D01*
X194508Y335299D01*
X194139Y334337D01*
X193873Y333342D01*
X193711Y332324D01*
X193658Y331295D01*
X213342D02*
X213289Y332324D01*
X213127Y333342D01*
X212861Y334337D01*
X212492Y335299D01*
X212024Y336216D01*
X211463Y337081D01*
X210814Y337881D01*
X210086Y338610D01*
X209285Y339258D01*
X208421Y339819D01*
X207503Y340287D01*
X206541Y340656D01*
X205546Y340923D01*
X204529Y341084D01*
X203500Y341138D01*
X193658Y305705D02*
X193711Y304676D01*
X193873Y303658D01*
X194139Y302663D01*
X194508Y301701D01*
X194976Y300783D01*
X195537Y299919D01*
X196186Y299119D01*
X196914Y298390D01*
X197715Y297742D01*
X198579Y297181D01*
X199497Y296713D01*
X200459Y296344D01*
X201454Y296077D01*
X202471Y295916D01*
X203500Y295862D01*
X204529Y295916D01*
X205546Y296077D01*
X206541Y296344D01*
X207503Y296713D01*
X208421Y297181D01*
X209285Y297742D01*
X210086Y298390D01*
X210814Y299119D01*
X211463Y299919D01*
X212024Y300783D01*
X212492Y301701D01*
X212861Y302663D01*
X213127Y303658D01*
X213289Y304676D01*
X213342Y305705D01*
X199843Y276063D02*
X199792Y277059D01*
X199641Y278044D01*
X199391Y279010D01*
X199045Y279944D01*
X198606Y280840D01*
X198078Y281686D01*
X197468Y282474D01*
X196781Y283197D01*
X196025Y283846D01*
X195206Y284416D01*
X194335Y284900D01*
X193418Y285293D01*
X192467Y285591D01*
X191490Y285792D01*
X190498Y285893D01*
X189502D01*
X188510Y285792D01*
X187533Y285591D01*
X186582Y285293D01*
X185665Y284900D01*
X184794Y284416D01*
X183975Y283846D01*
X183219Y283197D01*
X182532Y282474D01*
X181922Y281686D01*
X181394Y280840D01*
X180955Y279944D01*
X180609Y279010D01*
X180359Y278044D01*
X180208Y277059D01*
X180157Y276063D01*
X180208Y275067D01*
X180359Y274082D01*
X180609Y273116D01*
X180955Y272182D01*
X181394Y271286D01*
X181922Y270440D01*
X182532Y269652D01*
X183219Y268929D01*
X183975Y268280D01*
X184794Y267710D01*
X185665Y267226D01*
X186582Y266833D01*
X187533Y266535D01*
X188510Y266334D01*
X189502Y266233D01*
X190498D01*
X191490Y266334D01*
X192467Y266535D01*
X193418Y266833D01*
X194335Y267226D01*
X195206Y267710D01*
X196025Y268280D01*
X196781Y268929D01*
X197468Y269652D01*
X198078Y270440D01*
X198606Y271286D01*
X199045Y272182D01*
X199391Y273116D01*
X199641Y274082D01*
X199792Y275067D01*
X199843Y276063D01*
X226343D02*
X226292Y277059D01*
X226141Y278044D01*
X225891Y279010D01*
X225545Y279944D01*
X225106Y280840D01*
X224578Y281686D01*
X223968Y282474D01*
X223281Y283197D01*
X222525Y283846D01*
X221706Y284416D01*
X220835Y284900D01*
X219918Y285293D01*
X218967Y285591D01*
X217990Y285792D01*
X216999Y285893D01*
X216002D01*
X215010Y285792D01*
X214033Y285591D01*
X213082Y285293D01*
X212165Y284900D01*
X211294Y284416D01*
X210475Y283846D01*
X209719Y283197D01*
X209032Y282474D01*
X208422Y281686D01*
X207894Y280840D01*
X207455Y279944D01*
X207109Y279010D01*
X206859Y278044D01*
X206708Y277059D01*
X206658Y276063D01*
X206708Y275067D01*
X206859Y274082D01*
X207109Y273116D01*
X207455Y272182D01*
X207894Y271286D01*
X208422Y270440D01*
X209032Y269652D01*
X209719Y268929D01*
X210475Y268280D01*
X211294Y267710D01*
X212165Y267226D01*
X213082Y266833D01*
X214033Y266535D01*
X215010Y266334D01*
X216002Y266233D01*
X216999D01*
X217990Y266334D01*
X218967Y266535D01*
X219918Y266833D01*
X220835Y267226D01*
X221706Y267710D01*
X222525Y268280D01*
X223281Y268929D01*
X223968Y269652D01*
X224578Y270440D01*
X225106Y271286D01*
X225545Y272182D01*
X225891Y273116D01*
X226141Y274082D01*
X226292Y275067D01*
X226343Y276063D01*
X322410Y349500D02*
X322336Y350506D01*
X322116Y351491D01*
X321756Y352433D01*
X321263Y353312D01*
X320646Y354111D01*
X319920Y354811D01*
X319099Y355398D01*
X318202Y355859D01*
X317248Y356185D01*
X316256Y356368D01*
X315248Y356405D01*
X314245Y356294D01*
X313269Y356039D01*
X312341Y355645D01*
X311480Y355119D01*
X310704Y354474D01*
X310031Y353723D01*
X309475Y352882D01*
X309047Y351968D01*
X308756Y351002D01*
X308609Y350004D01*
Y348996D01*
X308756Y347998D01*
X309047Y347032D01*
X309475Y346118D01*
X310031Y345277D01*
X310704Y344526D01*
X311480Y343881D01*
X312341Y343355D01*
X313269Y342961D01*
X314245Y342705D01*
X315248Y342595D01*
X316256Y342632D01*
X317248Y342815D01*
X318202Y343141D01*
X319099Y343602D01*
X319920Y344189D01*
X320646Y344889D01*
X321263Y345688D01*
X321756Y346567D01*
X322116Y347509D01*
X322336Y348494D01*
X322410Y349500D01*
X320500Y232142D02*
X380500D01*
X320500Y199858D02*
Y232142D01*
Y199858D02*
X380500D01*
Y232142D01*
X285500Y198858D02*
Y230945D01*
X245500Y198858D02*
X285500D01*
X245500D02*
Y230945D01*
X285500D01*
X200000Y196413D02*
Y228500D01*
X160000Y196413D02*
X200000D01*
X160000D02*
Y228500D01*
X200000D01*
X344114Y368000D02*
Y373118D01*
Y362882D02*
Y368000D01*
Y362882D02*
X370886D01*
Y368000D01*
Y373118D01*
X344114D02*
X370886D01*
X339469Y368000D02*
X344114D01*
X370886D02*
X375532D01*
X371886Y320882D02*
Y326000D01*
Y331118D01*
X345114D02*
X371886D01*
X345114Y326000D02*
Y331118D01*
Y320882D02*
Y326000D01*
Y320882D02*
X371886D01*
Y326000D02*
X376532D01*
X340469D02*
X345114D01*
X168886Y348882D02*
Y354000D01*
Y359118D01*
X142114D02*
X168886D01*
X142114Y354000D02*
Y359118D01*
Y348882D02*
Y354000D01*
Y348882D02*
X168886D01*
Y354000D02*
X173531D01*
X137469D02*
X142114D01*
X185000Y356594D02*
Y373406D01*
X205650Y373488D02*
Y414433D01*
Y373488D02*
X223760D01*
Y414433D01*
X205650D02*
X223760D01*
X193658Y305705D02*
Y331295D01*
X213342Y305705D02*
Y331295D01*
X230500Y440858D02*
Y472945D01*
X190500Y440858D02*
X230500D01*
X190500D02*
Y472945D01*
X230500D01*
X133382Y211614D02*
X138500D01*
X143618D01*
Y238386D01*
X138500D02*
X143618D01*
X133382D02*
X138500D01*
X133382Y211614D02*
Y238386D01*
X138500Y206968D02*
Y211614D01*
Y238386D02*
Y243032D01*
X225382Y211614D02*
X230500D01*
X235618D01*
Y238386D01*
X230500D02*
X235618D01*
X225382D02*
X230500D01*
X225382Y211614D02*
Y238386D01*
X230500Y206968D02*
Y211614D01*
Y238386D02*
Y243032D01*
X305882Y211614D02*
X311000D01*
X316118D01*
Y238386D01*
X311000D02*
X316118D01*
X305882D02*
X311000D01*
X305882Y211614D02*
Y238386D01*
X311000Y206968D02*
Y211614D01*
Y238386D02*
Y243032D01*
X390386Y433382D02*
Y438500D01*
Y443618D01*
X363614D02*
X390386D01*
X363614Y438500D02*
Y443618D01*
Y433382D02*
Y438500D01*
Y433382D02*
X390386D01*
Y438500D02*
X395031D01*
X358968D02*
X363614D01*
X171945Y369500D02*
Y409500D01*
X139858D02*
X171945D01*
X139858Y369500D02*
Y409500D01*
Y369500D02*
X171945D01*
X306839Y361291D02*
X324555D01*
X327311Y344972D02*
Y354028D01*
X306445Y337709D02*
X324555D01*
X303709Y344972D02*
Y354028D01*
X171945Y428000D02*
Y468000D01*
X139858D02*
X171945D01*
X139858Y428000D02*
Y468000D01*
Y428000D02*
X171945D01*
X389945Y265500D02*
Y305500D01*
X357858D02*
X389945D01*
X357858Y265500D02*
Y305500D01*
Y265500D02*
X389945D01*
X387445Y380000D02*
Y420000D01*
X355358D02*
X387445D01*
X355358Y380000D02*
Y420000D01*
Y380000D02*
X387445D01*
D12*
X242492Y410118D02*
X241754Y410544D01*
Y409692D01*
X242492Y410118D01*
D13*
X251685Y405748D02*
X251240Y406671D01*
X250241Y406899D01*
X249440Y406260D01*
Y405236D01*
X250241Y404597D01*
X251240Y404825D01*
X251685Y405748D01*
D14*
X398000Y267500D02*
X392002D01*
Y270499D01*
X393002Y271499D01*
X395001D01*
X396001Y270499D01*
Y267500D01*
Y269499D02*
X398000Y271499D01*
Y276497D02*
Y274498D01*
X397000Y273498D01*
X395001D01*
X394001Y274498D01*
Y276497D01*
X395001Y277497D01*
X396001D01*
Y273498D01*
X398000Y279496D02*
Y282495D01*
X397000Y283495D01*
X396001Y282495D01*
Y280496D01*
X395001Y279496D01*
X394001Y280496D01*
Y283495D01*
X393002Y286494D02*
X394001D01*
Y285494D01*
Y287493D01*
Y286494D01*
X397000D01*
X398000Y287493D01*
X394001Y291492D02*
Y293492D01*
X395001Y294491D01*
X398000D01*
Y291492D01*
X397000Y290493D01*
X396001Y291492D01*
Y294491D01*
X394001Y296491D02*
X398000D01*
X396001D01*
X395001Y297490D01*
X394001Y298490D01*
Y299490D01*
X393002Y303488D02*
X394001D01*
Y302489D01*
Y304488D01*
Y303488D01*
X397000D01*
X398000Y304488D01*
X391002Y377999D02*
X390002Y376999D01*
Y375000D01*
X391002Y374000D01*
X395000D01*
X396000Y375000D01*
Y376999D01*
X395000Y377999D01*
X393001D01*
Y375999D01*
X392001Y380998D02*
Y382997D01*
X393001Y383997D01*
X396000D01*
Y380998D01*
X395000Y379998D01*
X394001Y380998D01*
Y383997D01*
X396000Y385996D02*
X392001D01*
Y386996D01*
X393001Y387996D01*
X396000D01*
X393001D01*
X392001Y388995D01*
X393001Y389995D01*
X396000D01*
Y394993D02*
Y392994D01*
X395000Y391994D01*
X393001D01*
X392001Y392994D01*
Y394993D01*
X393001Y395993D01*
X394001D01*
Y391994D01*
X391002Y401991D02*
X390002Y400991D01*
Y398992D01*
X391002Y397992D01*
X392001D01*
X393001Y398992D01*
Y400991D01*
X394001Y401991D01*
X395000D01*
X396000Y400991D01*
Y398992D01*
X395000Y397992D01*
X391002Y404990D02*
X392001D01*
Y403990D01*
Y405990D01*
Y404990D01*
X395000D01*
X396000Y405990D01*
X392001Y409988D02*
Y411988D01*
X393001Y412987D01*
X396000D01*
Y409988D01*
X395000Y408989D01*
X394001Y409988D01*
Y412987D01*
X392001Y414987D02*
X396000D01*
X394001D01*
X393001Y415986D01*
X392001Y416986D01*
Y417986D01*
X391002Y421984D02*
X392001D01*
Y420985D01*
Y422984D01*
Y421984D01*
X395000D01*
X396000Y422984D01*
X349000Y389499D02*
X352999D01*
X350999Y391499D02*
Y387500D01*
X351000Y274499D02*
X354999D01*
X352999Y276499D02*
Y272500D01*
X328500Y236999D02*
X332499D01*
X330499Y238999D02*
Y235000D01*
X273500Y234499D02*
X277499D01*
X275499Y236499D02*
Y232500D01*
X188000Y232499D02*
X191999D01*
X189999Y234499D02*
Y230500D01*
X174500Y379000D02*
X178499D01*
X130502Y374999D02*
X129503Y373999D01*
Y372000D01*
X130502Y371000D01*
X131502D01*
X132502Y372000D01*
Y373999D01*
X133501Y374999D01*
X134501D01*
X135501Y373999D01*
Y372000D01*
X134501Y371000D01*
X137500Y376998D02*
X131502D01*
Y379997D01*
X132502Y380997D01*
X134501D01*
X135501Y379997D01*
Y376998D01*
Y385995D02*
Y383996D01*
X134501Y382996D01*
X132502D01*
X131502Y383996D01*
Y385995D01*
X132502Y386995D01*
X133501D01*
Y382996D01*
X131502Y389994D02*
Y391993D01*
X132502Y392993D01*
X135501D01*
Y389994D01*
X134501Y388994D01*
X133501Y389994D01*
Y392993D01*
X135501Y394992D02*
X129503D01*
X133501D02*
X131502Y397991D01*
X133501Y394992D02*
X135501Y397991D01*
Y403989D02*
Y401990D01*
X134501Y400990D01*
X132502D01*
X131502Y401990D01*
Y403989D01*
X132502Y404989D01*
X133501D01*
Y400990D01*
X131502Y406988D02*
X135501D01*
X133501D01*
X132502Y407988D01*
X131502Y408988D01*
Y409987D01*
X175500Y457499D02*
X179499D01*
X177499Y459499D02*
Y455500D01*
X128503Y429000D02*
X134501D01*
Y431999D01*
X133501Y432999D01*
X132501D01*
X131502Y431999D01*
Y429000D01*
Y431999D01*
X130502Y432999D01*
X129502D01*
X128503Y431999D01*
Y429000D01*
X130502Y435998D02*
Y437997D01*
X131502Y438997D01*
X134501D01*
Y435998D01*
X133501Y434998D01*
X132501Y435998D01*
Y438997D01*
X129502Y441996D02*
X130502D01*
Y440996D01*
Y442996D01*
Y441996D01*
X133501D01*
X134501Y442996D01*
X129502Y446994D02*
X130502D01*
Y445995D01*
Y447994D01*
Y446994D01*
X133501D01*
X134501Y447994D01*
Y453992D02*
Y451993D01*
X133501Y450993D01*
X131502D01*
X130502Y451993D01*
Y453992D01*
X131502Y454992D01*
X132501D01*
Y450993D01*
X130502Y456991D02*
X134501D01*
X132501D01*
X131502Y457991D01*
X130502Y458990D01*
Y459990D01*
Y462989D02*
X133501D01*
X134501Y463989D01*
Y466988D01*
X135500D01*
X136500Y465988D01*
Y464988D01*
X134501Y466988D02*
X130502D01*
X344000Y236000D02*
Y241998D01*
X346999D01*
X347999Y240998D01*
Y238999D01*
X346999Y237999D01*
X344000D01*
X350998Y236000D02*
X352997D01*
X353997Y237000D01*
Y238999D01*
X352997Y239999D01*
X350998D01*
X349998Y238999D01*
Y237000D01*
X350998Y236000D01*
X356996Y240998D02*
Y239999D01*
X355996D01*
X357996D01*
X356996D01*
Y237000D01*
X357996Y236000D01*
X254999Y243498D02*
X253999Y244498D01*
X252000D01*
X251000Y243498D01*
Y242499D01*
X252000Y241499D01*
X253999D01*
X254999Y240499D01*
Y239500D01*
X253999Y238500D01*
X252000D01*
X251000Y239500D01*
X256998Y242499D02*
Y239500D01*
X257998Y238500D01*
X258997Y239500D01*
X259997Y238500D01*
X260997Y239500D01*
Y242499D01*
X262996Y238500D02*
X264996D01*
X263996D01*
Y242499D01*
X262996D01*
X268994Y243498D02*
Y242499D01*
X267994D01*
X269994D01*
X268994D01*
Y239500D01*
X269994Y238500D01*
X276992Y242499D02*
X273993D01*
X272993Y241499D01*
Y239500D01*
X273993Y238500D01*
X276992D01*
X278991Y244498D02*
Y238500D01*
Y241499D01*
X279991Y242499D01*
X281990D01*
X282990Y241499D01*
Y238500D01*
X164500Y242998D02*
Y237000D01*
X167499D01*
X168499Y238000D01*
Y238999D01*
X167499Y239999D01*
X164500D01*
X167499D01*
X168499Y240999D01*
Y241998D01*
X167499Y242998D01*
X164500D01*
X170498Y240999D02*
Y238000D01*
X171498Y237000D01*
X174497D01*
Y240999D01*
X177496Y241998D02*
Y240999D01*
X176496D01*
X178496D01*
X177496D01*
Y238000D01*
X178496Y237000D01*
X182494Y241998D02*
Y240999D01*
X181494D01*
X183494D01*
X182494D01*
Y238000D01*
X183494Y237000D01*
X187493D02*
X189492D01*
X190492Y238000D01*
Y239999D01*
X189492Y240999D01*
X187493D01*
X186493Y239999D01*
Y238000D01*
X187493Y237000D01*
X192491D02*
Y240999D01*
X195490D01*
X196490Y239999D01*
Y237000D01*
X206501Y348499D02*
Y347499D01*
X208501Y345500D01*
X210500Y347499D01*
Y348499D01*
X208501Y345500D02*
Y342501D01*
X212499D02*
X214499D01*
X213499D01*
Y348499D01*
X212499Y347499D01*
X358502Y335001D02*
Y340999D01*
X361501D01*
X362500Y339999D01*
Y338000D01*
X361501Y337000D01*
X358502D01*
X360501D02*
X362500Y335001D01*
X364500Y340999D02*
X368498D01*
Y339999D01*
X364500Y336001D01*
Y335001D01*
X352900Y447700D02*
Y453698D01*
X355899D01*
X356899Y452698D01*
Y450699D01*
X355899Y449699D01*
X352900D01*
X354899D02*
X356899Y447700D01*
X362897Y453698D02*
X360897Y452698D01*
X358898Y450699D01*
Y448700D01*
X359898Y447700D01*
X361897D01*
X362897Y448700D01*
Y449699D01*
X361897Y450699D01*
X358898D01*
X305800Y253100D02*
Y259098D01*
X308799D01*
X309799Y258098D01*
Y256099D01*
X308799Y255099D01*
X305800D01*
X307799D02*
X309799Y253100D01*
X315797Y259098D02*
X311798D01*
Y256099D01*
X313797Y257099D01*
X314797D01*
X315797Y256099D01*
Y254100D01*
X314797Y253100D01*
X312798D01*
X311798Y254100D01*
X225300Y253100D02*
Y259098D01*
X228299D01*
X229299Y258098D01*
Y256099D01*
X228299Y255099D01*
X225300D01*
X227299D02*
X229299Y253100D01*
X234297D02*
Y259098D01*
X231298Y256099D01*
X235297D01*
X133300Y253100D02*
Y259098D01*
X136299D01*
X137299Y258098D01*
Y256099D01*
X136299Y255099D01*
X133300D01*
X135299D02*
X137299Y253100D01*
X139298Y258098D02*
X140298Y259098D01*
X142297D01*
X143297Y258098D01*
Y257099D01*
X142297Y256099D01*
X141297D01*
X142297D01*
X143297Y255099D01*
Y254100D01*
X142297Y253100D01*
X140298D01*
X139298Y254100D01*
X119002Y351501D02*
Y357499D01*
X122001D01*
X123000Y356499D01*
Y354500D01*
X122001Y353500D01*
X119002D01*
X121001D02*
X123000Y351501D01*
X128998D02*
X125000D01*
X128998Y355500D01*
Y356499D01*
X127999Y357499D01*
X125999D01*
X125000Y356499D01*
X359001Y354501D02*
Y360499D01*
X362000D01*
X363000Y359499D01*
Y357500D01*
X362000Y356500D01*
X359001D01*
X361001D02*
X363000Y354501D01*
X364999D02*
X366999D01*
X365999D01*
Y360499D01*
X364999Y359499D01*
X207500Y292999D02*
X206501Y293999D01*
X204501D01*
X203502Y292999D01*
Y289001D01*
X204501Y288001D01*
X206501D01*
X207500Y289001D01*
X209500Y292999D02*
X210499Y293999D01*
X212499D01*
X213498Y292999D01*
Y292000D01*
X212499Y291000D01*
X211499D01*
X212499D01*
X213498Y290000D01*
Y289001D01*
X212499Y288001D01*
X210499D01*
X209500Y289001D01*
X181000Y292499D02*
X180001Y293499D01*
X178001D01*
X177002Y292499D01*
Y288501D01*
X178001Y287501D01*
X180001D01*
X181000Y288501D01*
X186998Y287501D02*
X183000D01*
X186998Y291500D01*
Y292499D01*
X185999Y293499D01*
X183999D01*
X183000Y292499D01*
X369500Y478999D02*
X368500Y479999D01*
X366501D01*
X365501Y478999D01*
Y475001D01*
X366501Y474001D01*
X368500D01*
X369500Y475001D01*
X371499Y474001D02*
X373499D01*
X372499D01*
Y479999D01*
X371499Y478999D01*
X177511Y474001D02*
Y479999D01*
X180510D01*
X181510Y479000D01*
Y477000D01*
X180510Y476001D01*
X177511D01*
X184509D02*
X186508D01*
X187508Y477000D01*
Y479000D01*
X186508Y479999D01*
X184509D01*
X183509Y479000D01*
Y477000D01*
X184509Y476001D01*
X189507Y479999D02*
Y477000D01*
X190507Y476001D01*
X191507Y477000D01*
X192506Y476001D01*
X193506Y477000D01*
Y479999D01*
X198504Y476001D02*
X196505D01*
X195505Y477000D01*
Y479000D01*
X196505Y479999D01*
X198504D01*
X199504Y479000D01*
Y478000D01*
X195505D01*
X201503Y479999D02*
Y476001D01*
Y478000D01*
X202503Y479000D01*
X203503Y479999D01*
X204502D01*
X213499Y476001D02*
X216498D01*
X217498Y477000D01*
X216498Y478000D01*
X214499D01*
X213499Y479000D01*
X214499Y479999D01*
X217498D01*
X219497D02*
Y477000D01*
X220497Y476001D01*
X221497Y477000D01*
X222497Y476001D01*
X223496Y477000D01*
Y479999D01*
X225496Y476001D02*
X227495D01*
X226495D01*
Y479999D01*
X225496D01*
X231493Y480999D02*
Y479999D01*
X230494D01*
X232493D01*
X231493D01*
Y477000D01*
X232493Y476001D01*
X239491Y479999D02*
X236492D01*
X235492Y479000D01*
Y477000D01*
X236492Y476001D01*
X239491D01*
X241490Y481999D02*
Y476001D01*
Y479000D01*
X242490Y479999D01*
X244489D01*
X245489Y479000D01*
Y476001D01*
X239600Y420098D02*
Y415100D01*
X240600Y414100D01*
X242599D01*
X243599Y415100D01*
Y420098D01*
X249597Y414100D02*
X245598D01*
X249597Y418099D01*
Y419098D01*
X248597Y420098D01*
X246598D01*
X245598Y419098D01*
X205001Y421999D02*
Y417001D01*
X206001Y416001D01*
X208000D01*
X209000Y417001D01*
Y421999D01*
X210999Y416001D02*
X212999D01*
X211999D01*
Y421999D01*
X210999Y420999D01*
X302199Y372798D02*
X301199Y373798D01*
X299200D01*
X298200Y372798D01*
Y371799D01*
X299200Y370799D01*
X301199D01*
X302199Y369799D01*
Y368800D01*
X301199Y367800D01*
X299200D01*
X298200Y368800D01*
X304198Y373798D02*
Y367800D01*
X306197Y369799D01*
X308197Y367800D01*
Y373798D01*
X310196Y367800D02*
X312195D01*
X311196D01*
Y373798D01*
X310196Y372798D01*
X205000Y362501D02*
Y366499D01*
X204000Y367499D01*
X202001D01*
X201001Y366499D01*
Y362501D01*
X202001Y361501D01*
X204000D01*
X203001Y363500D02*
X205000Y361501D01*
X204000D02*
X205000Y362501D01*
X206999Y361501D02*
X208999D01*
X207999D01*
Y367499D01*
X206999Y366499D01*
X287100Y469700D02*
Y475698D01*
X290099D01*
X291099Y474698D01*
Y472699D01*
X290099Y471699D01*
X287100D01*
X293098Y469700D02*
X295097D01*
X294098D01*
Y475698D01*
X293098Y474698D01*
X143799Y478098D02*
X141799D01*
X142799D01*
Y473100D01*
X141799Y472100D01*
X140800D01*
X139800Y473100D01*
X145798Y477098D02*
X146798Y478098D01*
X148797D01*
X149797Y477098D01*
Y476099D01*
X148797Y475099D01*
X149797Y474099D01*
Y473100D01*
X148797Y472100D01*
X146798D01*
X145798Y473100D01*
Y474099D01*
X146798Y475099D01*
X145798Y476099D01*
Y477098D01*
X146798Y475099D02*
X148797D01*
X359299Y430098D02*
X357299D01*
X358299D01*
Y425100D01*
X357299Y424100D01*
X356300D01*
X355300Y425100D01*
X361298Y430098D02*
X365297D01*
Y429098D01*
X361298Y425100D01*
Y424100D01*
X361799Y315598D02*
X359799D01*
X360799D01*
Y310600D01*
X359799Y309600D01*
X358800D01*
X357800Y310600D01*
X367797Y315598D02*
X365797Y314598D01*
X363798Y312599D01*
Y310600D01*
X364798Y309600D01*
X366797D01*
X367797Y310600D01*
Y311599D01*
X366797Y312599D01*
X363798D01*
X387500Y230999D02*
X385501D01*
X386501D01*
Y226001D01*
X385501Y225001D01*
X384501D01*
X383502Y226001D01*
X393498Y230999D02*
X389500D01*
Y228000D01*
X391499Y229000D01*
X392499D01*
X393498Y228000D01*
Y226001D01*
X392499Y225001D01*
X390499D01*
X389500Y226001D01*
X293500Y230999D02*
X291501D01*
X292501D01*
Y226001D01*
X291501Y225001D01*
X290501D01*
X289502Y226001D01*
X298499Y225001D02*
Y230999D01*
X295500Y228000D01*
X299498D01*
X208000Y227499D02*
X206001D01*
X207001D01*
Y222501D01*
X206001Y221501D01*
X205001D01*
X204002Y222501D01*
X210000Y226499D02*
X210999Y227499D01*
X212999D01*
X213998Y226499D01*
Y225500D01*
X212999Y224500D01*
X211999D01*
X212999D01*
X213998Y223500D01*
Y222501D01*
X212999Y221501D01*
X210999D01*
X210000Y222501D01*
X153699Y342098D02*
X151699D01*
X152699D01*
Y337100D01*
X151699Y336100D01*
X150700D01*
X149700Y337100D01*
X159697Y336100D02*
X155698D01*
X159697Y340099D01*
Y341098D01*
X158697Y342098D01*
X156698D01*
X155698Y341098D01*
X143799Y419598D02*
X141799D01*
X142799D01*
Y414600D01*
X141799Y413600D01*
X140800D01*
X139800Y414600D01*
X145798Y413600D02*
X147797D01*
X146798D01*
Y419598D01*
X145798Y418598D01*
D15*
X317500Y431358D02*
D03*
M02*
