G04*
G04 #@! TF.GenerationSoftware,Altium Limited,Altium Designer,25.2.1 (25)*
G04*
G04 Layer_Physical_Order=1*
G04 Layer_Color=255*
%FSLAX25Y25*%
%MOIN*%
G70*
G04*
G04 #@! TF.SameCoordinates,06D7508E-8D86-4BD8-A93B-F394D34A9F42*
G04*
G04*
G04 #@! TF.FilePolarity,Positive*
G04*
G01*
G75*
%ADD40C,0.01500*%
%ADD41C,0.06496*%
%ADD42R,0.06496X0.06496*%
%ADD43C,0.07677*%
%ADD44R,0.07677X0.07677*%
%ADD45C,0.04724*%
%ADD46C,0.04835*%
%ADD47R,0.04835X0.04835*%
%ADD48R,0.04331X0.04331*%
%ADD49C,0.04331*%
%ADD50C,0.07520*%
%ADD51R,0.07520X0.07520*%
%ADD52C,0.06000*%
%ADD53C,0.03965*%
%ADD54R,0.04331X0.04331*%
%ADD55R,0.05906X0.05906*%
%ADD56C,0.05906*%
%ADD57R,0.07677X0.07677*%
%ADD58C,0.05898*%
%ADD59R,0.05898X0.05898*%
%ADD60R,0.05472X0.05472*%
%ADD61C,0.05472*%
%ADD62C,0.06299*%
G04:AMPARAMS|DCode=63|XSize=62.99mil|YSize=62.99mil|CornerRadius=15.75mil|HoleSize=0mil|Usage=FLASHONLY|Rotation=0.000|XOffset=0mil|YOffset=0mil|HoleType=Round|Shape=RoundedRectangle|*
%AMROUNDEDRECTD63*
21,1,0.06299,0.03150,0,0,0.0*
21,1,0.03150,0.06299,0,0,0.0*
1,1,0.03150,0.01575,-0.01575*
1,1,0.03150,-0.01575,-0.01575*
1,1,0.03150,-0.01575,0.01575*
1,1,0.03150,0.01575,0.01575*
%
%ADD63ROUNDEDRECTD63*%
%ADD64C,0.05000*%
D40*
X272000Y325000D02*
Y335000D01*
X334968Y442500D02*
X335846Y441621D01*
Y368000D02*
Y441621D01*
X327500Y442500D02*
X334968D01*
X341347Y452500D02*
X355346Y438500D01*
X327500Y452500D02*
X341347D01*
X317500Y425879D02*
Y442500D01*
X315121Y423500D02*
X317500Y425879D01*
X291000Y423500D02*
X315121D01*
X285500Y418000D02*
X291000Y423500D01*
X285500Y328500D02*
Y418000D01*
X272000Y315000D02*
X285500Y328500D01*
X303500Y467924D02*
X307500Y463924D01*
Y452500D02*
Y463924D01*
X303500Y467924D02*
X367639D01*
X302705Y358358D02*
X304904Y360557D01*
X257576Y467924D02*
X303500D01*
X249500Y476000D02*
X257576Y467924D01*
X367639D02*
X373563Y462000D01*
X204000Y476000D02*
X249500D01*
X220500Y457000D02*
X222500Y455000D01*
Y442000D02*
Y455000D01*
X200500Y472500D02*
X204000Y476000D01*
X200500Y457000D02*
Y472500D01*
X293500Y220847D02*
X311000Y203346D01*
X293500Y220847D02*
Y385000D01*
X129500Y205000D02*
Y315121D01*
Y205000D02*
X141500Y193000D01*
X130379Y316000D02*
X141500D01*
X129500Y315121D02*
X130379Y316000D01*
X141500Y193000D02*
X170445D01*
X302705Y340642D02*
X328295D01*
X302705Y358358D02*
X328295D01*
X374000Y295500D02*
X380153Y301654D01*
Y326000D01*
X400000Y275500D02*
X403500Y272000D01*
X374000Y275500D02*
X400000D01*
X403500Y272000D02*
Y386000D01*
X379153Y385653D02*
X383500Y390000D01*
X379153Y368000D02*
Y385653D01*
X383500Y390000D02*
X399500D01*
X271500Y334500D02*
X272000Y335000D01*
X264500Y334500D02*
X271500D01*
X254000Y345000D02*
X264500Y334500D01*
X242000Y345000D02*
X254000D01*
X403500Y220500D02*
Y272000D01*
X376000Y193000D02*
X403500Y220500D01*
X165500Y399500D02*
X190000Y375000D01*
X156000Y399500D02*
X165500D01*
X189362Y364362D02*
X190000Y365000D01*
X187515Y364362D02*
X189362D01*
X177154Y354000D02*
X187515Y364362D01*
X141500Y316000D02*
X154500D01*
X141500Y475121D02*
X142379Y476000D01*
X204000D01*
X141500Y316000D02*
Y475121D01*
X234000Y287000D02*
X242000Y295000D01*
X234000Y263000D02*
Y287000D01*
Y263000D02*
X255500Y241500D01*
Y215000D02*
Y241500D01*
X235500Y305000D02*
X242000D01*
X229500Y299000D02*
X235500Y305000D01*
X229500Y262500D02*
Y299000D01*
X219500Y252500D02*
X229500Y262500D01*
X209945Y252500D02*
X219500D01*
X170000Y212555D02*
X209945Y252500D01*
X233000Y325000D02*
X242000D01*
X229894Y328106D02*
X233000Y325000D01*
X203500Y328106D02*
X229894D01*
X209606Y315000D02*
X242000D01*
X203500Y308894D02*
X209606Y315000D01*
X240855Y325000D02*
X242000D01*
X203500Y293000D02*
Y308894D01*
Y293000D02*
X216500Y280000D01*
X190000Y314606D02*
X203500Y328106D01*
X190000Y280000D02*
Y314606D01*
X261500Y405500D02*
X272000Y395000D01*
X261500Y405500D02*
Y411500D01*
X258000Y415000D02*
X261500Y411500D01*
X239500Y415000D02*
X258000D01*
X233500Y409000D02*
X239500Y415000D01*
X233500Y368500D02*
Y409000D01*
X161000Y296000D02*
X233500Y368500D01*
X272000Y405000D02*
Y419621D01*
X271121Y420500D02*
X272000Y419621D01*
X237000Y420500D02*
X271121D01*
X228000Y411500D02*
X237000Y420500D01*
X228000Y369000D02*
Y411500D01*
X165000Y306000D02*
X228000Y369000D01*
X154500Y296000D02*
X161000D01*
X154500Y306000D02*
X165000D01*
X190000Y336500D02*
Y355000D01*
X169500Y316000D02*
X190000Y336500D01*
X154500Y316000D02*
X169500D01*
X222500Y442000D02*
X223000Y441500D01*
Y388500D02*
Y441500D01*
X218510Y384010D02*
X223000Y388500D01*
X212589Y384010D02*
X218510D01*
X212500Y383921D02*
X212589Y384010D01*
X209490Y407010D02*
X212500Y404000D01*
X206990Y407010D02*
X209490D01*
X156000Y458000D02*
X206990Y407010D01*
X371500Y390000D02*
X383500D01*
X399500D02*
X403500Y386000D01*
X322000Y193000D02*
X376000D01*
X330500Y201500D02*
Y216000D01*
X322000Y193000D02*
X330500Y201500D01*
X253500Y193000D02*
X322000D01*
X253500D02*
X275500Y215000D01*
X170445Y193000D02*
X253500D01*
X170445D02*
X190000Y212555D01*
D41*
X330500Y216000D02*
D03*
X350500D02*
D03*
D42*
X370500D02*
D03*
D43*
X255500Y215000D02*
D03*
X170000Y212555D02*
D03*
X200500Y457000D02*
D03*
X156000Y399500D02*
D03*
Y458000D02*
D03*
X374000Y295500D02*
D03*
X371500Y410000D02*
D03*
D44*
X275500Y215000D02*
D03*
X190000Y212555D02*
D03*
X220500Y457000D02*
D03*
D45*
X335846Y368000D02*
D03*
X379153D02*
D03*
X380153Y326000D02*
D03*
X336846D02*
D03*
X177154Y354000D02*
D03*
X133846D02*
D03*
X138500Y203346D02*
D03*
Y246654D02*
D03*
X230500Y203346D02*
D03*
Y246654D02*
D03*
X311000Y203346D02*
D03*
Y246654D02*
D03*
X398654Y438500D02*
D03*
X355346D02*
D03*
D46*
X190000Y355000D02*
D03*
Y365000D02*
D03*
D47*
Y375000D02*
D03*
D48*
X373563Y462000D02*
D03*
D49*
X381437D02*
D03*
X190000Y272126D02*
D03*
X216500D02*
D03*
D50*
X212500Y383921D02*
D03*
Y393961D02*
D03*
D51*
Y404000D02*
D03*
D52*
X400000Y198500D02*
D03*
Y475500D02*
D03*
X124000D02*
D03*
Y198500D02*
D03*
D53*
X203500Y308894D02*
D03*
Y328106D02*
D03*
D54*
X190000Y280000D02*
D03*
X216500D02*
D03*
D55*
X242000Y405000D02*
D03*
D56*
Y395000D02*
D03*
Y385000D02*
D03*
Y375000D02*
D03*
Y365000D02*
D03*
Y355000D02*
D03*
Y345000D02*
D03*
Y335000D02*
D03*
Y325000D02*
D03*
Y315000D02*
D03*
Y305000D02*
D03*
Y295000D02*
D03*
Y285000D02*
D03*
Y275000D02*
D03*
X272000Y405000D02*
D03*
Y395000D02*
D03*
Y385000D02*
D03*
Y375000D02*
D03*
Y365000D02*
D03*
Y355000D02*
D03*
Y345000D02*
D03*
Y335000D02*
D03*
Y325000D02*
D03*
Y315000D02*
D03*
Y305000D02*
D03*
Y295000D02*
D03*
Y285000D02*
D03*
Y275000D02*
D03*
D57*
X156000Y379500D02*
D03*
Y438000D02*
D03*
X374000Y275500D02*
D03*
X371500Y390000D02*
D03*
D58*
X302705Y340642D02*
D03*
X328295D02*
D03*
Y358358D02*
D03*
D59*
X302705D02*
D03*
D60*
X154500Y296000D02*
D03*
D61*
Y306000D02*
D03*
Y316000D02*
D03*
Y326000D02*
D03*
D62*
X327500Y452500D02*
D03*
Y442500D02*
D03*
X317500Y452500D02*
D03*
Y442500D02*
D03*
X307500Y452500D02*
D03*
D63*
Y442500D02*
D03*
D64*
X293500Y385000D02*
D03*
M02*
