G04*
G04 #@! TF.GenerationSoftware,Altium Limited,Altium Designer,25.2.1 (25)*
G04*
G04 Layer_Color=16711935*
%FSLAX25Y25*%
%MOIN*%
G70*
G04*
G04 #@! TF.SameCoordinates,06D7508E-8D86-4BD8-A93B-F394D34A9F42*
G04*
G04*
G04 #@! TF.FilePolarity,Positive*
G04*
G01*
G75*
%ADD10C,0.00787*%
%ADD11C,0.00500*%
%ADD65C,0.00394*%
D10*
X383965Y215606D02*
X383177D01*
X383965D01*
X290224Y215000D02*
X289437D01*
X290224D01*
X204724Y212555D02*
X203937D01*
X204724D01*
X190394Y381354D02*
X189606D01*
X190394D01*
X365098Y462000D02*
X364311D01*
X365098D01*
X204252Y404000D02*
X203465D01*
X204252D01*
X190394Y288858D02*
X189606D01*
X190394D01*
X216894D02*
X216106D01*
X216894D01*
X235224Y457000D02*
X234437D01*
X235224D01*
X156394Y365169D02*
X155606D01*
X156394D01*
Y423669D02*
X155606D01*
X156394D01*
X154894Y287437D02*
X154106D01*
X154894D01*
X374394Y261169D02*
X373606D01*
X374394D01*
X371894Y375669D02*
X371106D01*
X371894D01*
D11*
X190000Y355984D02*
X191009Y356041D01*
X192006Y356210D01*
X192978Y356490D01*
X193912Y356877D01*
X194797Y357366D01*
X195621Y357951D01*
X196375Y358625D01*
X197049Y359379D01*
X197634Y360203D01*
X198123Y361088D01*
X198510Y362022D01*
X198790Y362994D01*
X198959Y363990D01*
X199016Y365000D01*
X198959Y366009D01*
X198790Y367006D01*
X198510Y367978D01*
X198123Y368912D01*
X197634Y369797D01*
X197049Y370621D01*
X196375Y371375D01*
X195621Y372049D01*
X194797Y372634D01*
X193912Y373123D01*
X192978Y373510D01*
X192006Y373790D01*
X191009Y373959D01*
X190000Y374016D01*
X387343Y462000D02*
X387292Y462996D01*
X387141Y463981D01*
X386891Y464947D01*
X386545Y465881D01*
X386106Y466777D01*
X385578Y467623D01*
X384968Y468411D01*
X384281Y469134D01*
X383525Y469783D01*
X382706Y470353D01*
X381835Y470837D01*
X380918Y471230D01*
X379967Y471528D01*
X378990Y471729D01*
X377998Y471830D01*
X377002D01*
X376010Y471729D01*
X375033Y471528D01*
X374082Y471230D01*
X373165Y470837D01*
X372294Y470353D01*
X371475Y469783D01*
X370719Y469134D01*
X370032Y468411D01*
X369422Y467623D01*
X368894Y466777D01*
X368455Y465881D01*
X368109Y464947D01*
X367859Y463981D01*
X367708Y462996D01*
X367657Y462000D01*
X367708Y461004D01*
X367859Y460019D01*
X368109Y459054D01*
X368455Y458118D01*
X368894Y457223D01*
X369422Y456377D01*
X370032Y455589D01*
X370719Y454866D01*
X371475Y454217D01*
X372294Y453647D01*
X373165Y453163D01*
X374082Y452770D01*
X375033Y452472D01*
X376010Y452271D01*
X377002Y452170D01*
X377998D01*
X378991Y452271D01*
X379967Y452472D01*
X380918Y452770D01*
X381835Y453163D01*
X382706Y453647D01*
X383525Y454217D01*
X384281Y454866D01*
X384968Y455589D01*
X385578Y456377D01*
X386106Y457223D01*
X386545Y458119D01*
X386891Y459054D01*
X387141Y460019D01*
X387292Y461004D01*
X387343Y462000D01*
X203500Y341138D02*
X202471Y341084D01*
X201454Y340923D01*
X200459Y340656D01*
X199497Y340287D01*
X198579Y339819D01*
X197715Y339258D01*
X196914Y338610D01*
X196186Y337881D01*
X195537Y337081D01*
X194976Y336216D01*
X194508Y335299D01*
X194139Y334337D01*
X193873Y333342D01*
X193711Y332324D01*
X193658Y331295D01*
X213342D02*
X213289Y332324D01*
X213127Y333342D01*
X212861Y334337D01*
X212492Y335299D01*
X212024Y336216D01*
X211463Y337081D01*
X210814Y337881D01*
X210086Y338610D01*
X209285Y339258D01*
X208421Y339819D01*
X207503Y340287D01*
X206541Y340656D01*
X205546Y340923D01*
X204529Y341084D01*
X203500Y341138D01*
X193658Y305705D02*
X193711Y304676D01*
X193873Y303658D01*
X194139Y302663D01*
X194508Y301701D01*
X194976Y300783D01*
X195537Y299919D01*
X196186Y299119D01*
X196914Y298390D01*
X197715Y297742D01*
X198579Y297181D01*
X199497Y296713D01*
X200459Y296344D01*
X201454Y296077D01*
X202471Y295916D01*
X203500Y295862D01*
X204529Y295916D01*
X205546Y296077D01*
X206541Y296344D01*
X207503Y296713D01*
X208421Y297181D01*
X209285Y297742D01*
X210086Y298390D01*
X210814Y299119D01*
X211463Y299919D01*
X212024Y300783D01*
X212492Y301701D01*
X212861Y302663D01*
X213127Y303658D01*
X213289Y304676D01*
X213342Y305705D01*
X199843Y276063D02*
X199792Y277059D01*
X199641Y278044D01*
X199391Y279010D01*
X199045Y279944D01*
X198606Y280840D01*
X198078Y281686D01*
X197468Y282474D01*
X196781Y283197D01*
X196025Y283846D01*
X195206Y284416D01*
X194335Y284900D01*
X193418Y285293D01*
X192467Y285591D01*
X191490Y285792D01*
X190498Y285893D01*
X189502D01*
X188510Y285792D01*
X187533Y285591D01*
X186582Y285293D01*
X185665Y284900D01*
X184794Y284416D01*
X183975Y283846D01*
X183219Y283197D01*
X182532Y282474D01*
X181922Y281686D01*
X181394Y280840D01*
X180955Y279944D01*
X180609Y279010D01*
X180359Y278044D01*
X180208Y277059D01*
X180157Y276063D01*
X180208Y275067D01*
X180359Y274082D01*
X180609Y273116D01*
X180955Y272182D01*
X181394Y271286D01*
X181922Y270440D01*
X182532Y269652D01*
X183219Y268929D01*
X183975Y268280D01*
X184794Y267710D01*
X185665Y267226D01*
X186582Y266833D01*
X187533Y266535D01*
X188510Y266334D01*
X189502Y266233D01*
X190498D01*
X191490Y266334D01*
X192467Y266535D01*
X193418Y266833D01*
X194335Y267226D01*
X195206Y267710D01*
X196025Y268280D01*
X196781Y268929D01*
X197468Y269652D01*
X198078Y270440D01*
X198606Y271286D01*
X199045Y272182D01*
X199391Y273116D01*
X199641Y274082D01*
X199792Y275067D01*
X199843Y276063D01*
X226343D02*
X226292Y277059D01*
X226141Y278044D01*
X225891Y279010D01*
X225545Y279944D01*
X225106Y280840D01*
X224578Y281686D01*
X223968Y282474D01*
X223281Y283197D01*
X222525Y283846D01*
X221706Y284416D01*
X220835Y284900D01*
X219918Y285293D01*
X218967Y285591D01*
X217990Y285792D01*
X216999Y285893D01*
X216002D01*
X215010Y285792D01*
X214033Y285591D01*
X213082Y285293D01*
X212165Y284900D01*
X211294Y284416D01*
X210475Y283846D01*
X209719Y283197D01*
X209032Y282474D01*
X208422Y281686D01*
X207894Y280840D01*
X207455Y279944D01*
X207109Y279010D01*
X206859Y278044D01*
X206708Y277059D01*
X206658Y276063D01*
X206708Y275067D01*
X206859Y274082D01*
X207109Y273116D01*
X207455Y272182D01*
X207894Y271286D01*
X208422Y270440D01*
X209032Y269652D01*
X209719Y268929D01*
X210475Y268280D01*
X211294Y267710D01*
X212165Y267226D01*
X213082Y266833D01*
X214033Y266535D01*
X215010Y266334D01*
X216002Y266233D01*
X216999D01*
X217990Y266334D01*
X218967Y266535D01*
X219918Y266833D01*
X220835Y267226D01*
X221706Y267710D01*
X222525Y268280D01*
X223281Y268929D01*
X223968Y269652D01*
X224578Y270440D01*
X225106Y271286D01*
X225545Y272182D01*
X225891Y273116D01*
X226141Y274082D01*
X226292Y275067D01*
X226343Y276063D01*
X322410Y349500D02*
X322336Y350506D01*
X322116Y351491D01*
X321756Y352433D01*
X321263Y353312D01*
X320646Y354111D01*
X319920Y354811D01*
X319099Y355398D01*
X318202Y355859D01*
X317248Y356185D01*
X316256Y356368D01*
X315248Y356405D01*
X314245Y356294D01*
X313269Y356039D01*
X312341Y355645D01*
X311480Y355119D01*
X310704Y354474D01*
X310031Y353723D01*
X309475Y352882D01*
X309047Y351968D01*
X308756Y351002D01*
X308609Y350004D01*
Y348996D01*
X308756Y347998D01*
X309047Y347032D01*
X309475Y346118D01*
X310031Y345277D01*
X310704Y344526D01*
X311480Y343881D01*
X312341Y343355D01*
X313269Y342961D01*
X314245Y342705D01*
X315248Y342595D01*
X316256Y342632D01*
X317248Y342815D01*
X318202Y343141D01*
X319099Y343602D01*
X319920Y344189D01*
X320646Y344889D01*
X321263Y345688D01*
X321756Y346567D01*
X322116Y347509D01*
X322336Y348494D01*
X322410Y349500D01*
X320500Y232142D02*
X380500D01*
X320500Y199858D02*
Y232142D01*
Y199858D02*
X380500D01*
Y232142D01*
X285500Y198858D02*
Y230945D01*
X245500Y198858D02*
X285500D01*
X245500D02*
Y230945D01*
X285500D01*
X200000Y196413D02*
Y228500D01*
X160000Y196413D02*
X200000D01*
X160000D02*
Y228500D01*
X200000D01*
X344114Y368000D02*
Y373118D01*
Y362882D02*
Y368000D01*
Y362882D02*
X370886D01*
Y368000D01*
Y373118D01*
X344114D02*
X370886D01*
X338209Y368000D02*
X344114D01*
X370886D02*
X376791D01*
X371886Y320882D02*
Y326000D01*
Y331118D01*
X345114D02*
X371886D01*
X345114Y326000D02*
Y331118D01*
Y320882D02*
Y326000D01*
Y320882D02*
X371886D01*
Y326000D02*
X377791D01*
X339209D02*
X345114D01*
X168886Y348882D02*
Y354000D01*
Y359118D01*
X142114D02*
X168886D01*
X142114Y354000D02*
Y359118D01*
Y348882D02*
Y354000D01*
Y348882D02*
X168886D01*
Y354000D02*
X174791D01*
X136209D02*
X142114D01*
X185000Y356594D02*
X190000Y355984D01*
X185000Y373406D02*
X190000Y374016D01*
X185000Y356594D02*
Y373406D01*
X205650Y373488D02*
Y414433D01*
Y373488D02*
X223760D01*
Y414433D01*
X205650D02*
X223760D01*
X193658Y305705D02*
Y331295D01*
X213342Y305705D02*
Y331295D01*
X230500Y440858D02*
Y472945D01*
X190500Y440858D02*
X230500D01*
X190500D02*
Y472945D01*
X230500D01*
X133382Y211614D02*
X138500D01*
X143618D01*
Y238386D01*
X138500D02*
X143618D01*
X133382D02*
X138500D01*
X133382Y211614D02*
Y238386D01*
X138500Y205709D02*
Y211614D01*
Y238386D02*
Y244291D01*
X225382Y211614D02*
X230500D01*
X235618D01*
Y238386D01*
X230500D02*
X235618D01*
X225382D02*
X230500D01*
X225382Y211614D02*
Y238386D01*
X230500Y205709D02*
Y211614D01*
Y238386D02*
Y244291D01*
X305882Y211614D02*
X311000D01*
X316118D01*
Y238386D01*
X311000D02*
X316118D01*
X305882D02*
X311000D01*
X305882Y211614D02*
Y238386D01*
X311000Y205709D02*
Y211614D01*
Y238386D02*
Y244291D01*
X390386Y433382D02*
Y438500D01*
Y443618D01*
X363614D02*
X390386D01*
X363614Y438500D02*
Y443618D01*
Y433382D02*
Y438500D01*
Y433382D02*
X390386D01*
Y438500D02*
X396291D01*
X357709D02*
X363614D01*
X171945Y369500D02*
Y409500D01*
X139858D02*
X171945D01*
X139858Y369500D02*
Y409500D01*
Y369500D02*
X171945D01*
X303709Y337709D02*
Y361291D01*
Y337709D02*
X327291D01*
Y361291D01*
X303709D02*
X327291D01*
X171945Y428000D02*
Y468000D01*
X139858D02*
X171945D01*
X139858Y428000D02*
Y468000D01*
Y428000D02*
X171945D01*
X389945Y265500D02*
Y305500D01*
X357858D02*
X389945D01*
X357858Y265500D02*
Y305500D01*
Y265500D02*
X389945D01*
X387445Y380000D02*
Y420000D01*
X355358D02*
X387445D01*
X355358Y380000D02*
Y420000D01*
Y380000D02*
X387445D01*
D65*
X248339Y405945D02*
X248075Y406929D01*
X247354Y407650D01*
X246370Y407913D01*
X245386Y407650D01*
X244665Y406929D01*
X244402Y405945D01*
X244665Y404961D01*
X245386Y404240D01*
X246370Y403976D01*
X247354Y404240D01*
X248075Y404961D01*
X248339Y405945D01*
X242827Y270512D02*
Y409488D01*
X271173Y270512D02*
Y409488D01*
X242827D02*
X271173D01*
X242827Y270512D02*
X271173D01*
X149750Y289996D02*
X159250D01*
X149750D02*
Y332004D01*
X159250D01*
Y289996D02*
Y332004D01*
X149750Y289996D02*
X159250D01*
X149750D02*
Y332004D01*
X159250D01*
M02*
