G04*
G04 #@! TF.GenerationSoftware,Altium Limited,Altium Designer,25.2.1 (25)*
G04*
G04 Layer_Color=255*
%FSLAX25Y25*%
%MOIN*%
G70*
G04*
G04 #@! TF.SameCoordinates,06D7508E-8D86-4BD8-A93B-F394D34A9F42*
G04*
G04*
G04 #@! TF.FilePolarity,Positive*
G04*
G01*
G75*
%ADD41C,0.06496*%
%ADD42R,0.06496X0.06496*%
%ADD43C,0.07677*%
%ADD44R,0.07677X0.07677*%
%ADD45C,0.04724*%
%ADD46C,0.04835*%
%ADD47R,0.04835X0.04835*%
%ADD48R,0.04331X0.04331*%
%ADD49C,0.04331*%
%ADD50C,0.07520*%
%ADD51R,0.07520X0.07520*%
%ADD52C,0.06000*%
%ADD53C,0.03965*%
%ADD54R,0.04331X0.04331*%
%ADD55R,0.05906X0.05906*%
%ADD56C,0.05906*%
%ADD57R,0.07677X0.07677*%
%ADD58C,0.05898*%
%ADD59R,0.05898X0.05898*%
%ADD60R,0.05472X0.05472*%
%ADD61C,0.05472*%
%ADD62C,0.06299*%
G04:AMPARAMS|DCode=63|XSize=62.99mil|YSize=62.99mil|CornerRadius=15.75mil|HoleSize=0mil|Usage=FLASHONLY|Rotation=0.000|XOffset=0mil|YOffset=0mil|HoleType=Round|Shape=RoundedRectangle|*
%AMROUNDEDRECTD63*
21,1,0.06299,0.03150,0,0,0.0*
21,1,0.03150,0.06299,0,0,0.0*
1,1,0.03150,0.01575,-0.01575*
1,1,0.03150,-0.01575,-0.01575*
1,1,0.03150,-0.01575,0.01575*
1,1,0.03150,0.01575,0.01575*
%
%ADD63ROUNDEDRECTD63*%
D41*
X330500Y216000D02*
D03*
X350500D02*
D03*
D42*
X370500D02*
D03*
D43*
X255500Y215000D02*
D03*
X170000Y212555D02*
D03*
X200500Y457000D02*
D03*
X156000Y399500D02*
D03*
Y458000D02*
D03*
X374000Y295500D02*
D03*
X371500Y410000D02*
D03*
D44*
X275500Y215000D02*
D03*
X190000Y212555D02*
D03*
X220500Y457000D02*
D03*
D45*
X335846Y368000D02*
D03*
X379153D02*
D03*
X380153Y326000D02*
D03*
X336846D02*
D03*
X177154Y354000D02*
D03*
X133846D02*
D03*
X138500Y203346D02*
D03*
Y246654D02*
D03*
X230500Y203346D02*
D03*
Y246654D02*
D03*
X311000Y203346D02*
D03*
Y246654D02*
D03*
X398654Y438500D02*
D03*
X355346D02*
D03*
D46*
X190000Y355000D02*
D03*
Y365000D02*
D03*
D47*
Y375000D02*
D03*
D48*
X373563Y462000D02*
D03*
D49*
X381437D02*
D03*
X190000Y272126D02*
D03*
X216500D02*
D03*
D50*
X212500Y383921D02*
D03*
Y393961D02*
D03*
D51*
Y404000D02*
D03*
D52*
X400000Y198500D02*
D03*
Y475500D02*
D03*
X124000D02*
D03*
Y198500D02*
D03*
D53*
X203500Y308894D02*
D03*
Y328106D02*
D03*
D54*
X190000Y280000D02*
D03*
X216500D02*
D03*
D55*
X242000Y405000D02*
D03*
D56*
Y395000D02*
D03*
Y385000D02*
D03*
Y375000D02*
D03*
Y365000D02*
D03*
Y355000D02*
D03*
Y345000D02*
D03*
Y335000D02*
D03*
Y325000D02*
D03*
Y315000D02*
D03*
Y305000D02*
D03*
Y295000D02*
D03*
Y285000D02*
D03*
Y275000D02*
D03*
X272000Y405000D02*
D03*
Y395000D02*
D03*
Y385000D02*
D03*
Y375000D02*
D03*
Y365000D02*
D03*
Y355000D02*
D03*
Y345000D02*
D03*
Y335000D02*
D03*
Y325000D02*
D03*
Y315000D02*
D03*
Y305000D02*
D03*
Y295000D02*
D03*
Y285000D02*
D03*
Y275000D02*
D03*
D57*
X156000Y379500D02*
D03*
Y438000D02*
D03*
X374000Y275500D02*
D03*
X371500Y390000D02*
D03*
D58*
X302705Y340642D02*
D03*
X328295D02*
D03*
Y358358D02*
D03*
D59*
X302705D02*
D03*
D60*
X154500Y296000D02*
D03*
D61*
Y306000D02*
D03*
Y316000D02*
D03*
Y326000D02*
D03*
D62*
X327500Y452500D02*
D03*
Y442500D02*
D03*
X317500Y452500D02*
D03*
Y442500D02*
D03*
X307500Y452500D02*
D03*
D63*
Y442500D02*
D03*
M02*
